<svg width="98" height="90" viewBox="0 0 98 90" fill="none" xmlns="http://www.w3.org/2000/svg">
<rect width="98" height="90" rx="14" fill="#FF9EC3"/>
<mask id="mask0_154_155" style="mask-type:luminance" maskUnits="userSpaceOnUse" x="0" y="0" width="98" height="90">
<rect width="98" height="90" rx="14" fill="white"/>
</mask>
<g mask="url(#mask0_154_155)">
<path d="M79.6843 32.6378V20.1696C79.6858 19.932 79.7344 19.6968 79.8278 19.4753C79.5076 19.1269 79.3322 18.6856 79.3326 18.2297V16.6997C79.3321 16.1839 79.5554 15.6891 79.9531 15.3248C80.3508 14.9604 80.8901 14.7566 81.4518 14.7583H83.5518C84.1131 14.757 84.6518 14.9611 85.0488 15.3254C85.4458 15.6897 85.6685 16.1843 85.6676 16.6997V18.2297C85.6685 18.6854 85.4936 19.1267 85.1741 19.4753C85.2675 19.6967 85.3155 19.9321 85.3158 20.1696V32.8081C87.6048 40.9162 91.2991 40.8165 91.2991 47.7803V74.3849C91.2995 74.8992 91.0774 75.3927 90.6815 75.7565C90.2857 76.1203 89.7486 76.3247 89.1886 76.3247H75.9901C74.8245 76.3247 73.8796 75.457 73.8796 74.3865C73.8796 74.3865 73.9303 52.9344 73.8796 47.7819C73.7991 39.9744 78.6291 38.904 79.6843 32.6378Z" fill="#769C41"/>
<path d="M85.6675 17.3828C85.6679 18.0791 85.3671 18.7471 84.8311 19.2396C84.2951 19.7321 83.568 20.0088 82.8097 20.0088H81.8402C81.082 20.0093 80.3547 19.7329 79.8184 19.2407C79.2821 18.7485 78.9807 18.0807 78.9807 17.3844C78.9807 15.934 80.261 14.7583 81.8402 14.7583H82.8097C84.388 14.7583 85.6675 15.9333 85.6675 17.3828Z" fill="#F5AB35"/>
<path d="M91.2991 53.5613V64.5975C91.2991 66.7118 89.4328 68.4257 87.1306 68.4257H78.0603C75.7572 68.4257 73.8901 66.7111 73.8901 64.5959V53.5613C73.8901 51.4461 75.7572 49.7314 78.0603 49.7314H87.1288C89.432 49.7314 91.2991 51.4461 91.2991 53.5613Z" fill="#F5AB35"/>
<path d="M79.6843 31.8007C79.6609 32.8504 80.5677 33.7193 81.7108 33.7421H83.2858C84.4286 33.7201 85.3357 32.8518 85.3123 31.8023V25.0989C85.3357 24.0494 84.4286 23.181 83.2858 23.1591H81.7108C80.5684 23.1819 79.6618 24.0497 79.6843 25.0989V31.8007Z" fill="#F5AB35"/>
<path d="M86.3327 43.8123C87.1919 46.3098 86.4517 48.7494 87.8884 48.3332C89.3252 47.9169 89.7907 45.5528 88.9419 43.0569C88.0932 40.5611 86.2207 38.8784 84.7874 39.2898C83.3542 39.7012 85.4752 41.3164 86.3327 43.8123Z" fill="white"/>
<g style="mix-blend-mode:multiply">
<path d="M73.8987 66.5127C73.8987 70.9565 73.8795 74.3877 73.8795 74.3877C73.8814 75.4578 74.8265 76.3243 75.9917 76.3243H82.5892V14.7611H81.0947C79.9298 14.762 78.986 15.6295 78.986 16.6993V18.0718C78.9888 18.6631 79.2868 19.2205 79.7945 19.5841C79.7262 19.7736 79.689 19.9713 79.6842 20.1708V32.639C78.6342 38.9068 73.799 39.974 73.8777 47.7799C73.89 48.6525 73.897 49.9961 73.897 51.6161C73.897 51.6322 73.897 51.6547 73.897 51.6724V66.4854C73.8917 66.495 73.8987 66.4999 73.8987 66.5127Z" fill="#CCCCCC"/>
</g>
<path d="M70.3552 42.7243V33.9766C70.3552 32.7182 69.6202 31.2155 72.8384 31.6961H74.1719C77.3902 31.2139 76.6552 32.7166 76.6552 33.9766V42.7243C77.2292 43.4218 82.3252 61.9312 82.3252 63.1896V82.5445C82.3252 83.1491 82.0635 83.729 81.5978 84.1565C81.132 84.5839 80.5004 84.8238 79.8419 84.8234H66.8517C65.4812 84.8234 64.3702 83.8031 64.3702 82.5445V63.1896C65.9341 56.2676 67.9324 49.4344 70.3552 42.7243Z" fill="#AA0C48"/>
<path d="M76.7271 30.4344C76.7271 31.0735 76.1629 31.5916 75.4671 31.5916H71.5436C70.8481 31.5907 70.2845 31.0731 70.2836 30.4344C70.2845 29.796 70.8484 29.2789 71.5436 29.2789C70.8477 29.2789 70.2836 28.7608 70.2836 28.1217C70.2836 27.4827 70.8477 26.9646 71.5436 26.9646H75.4671C76.1629 26.9646 76.7271 27.4827 76.7271 28.1217C76.7271 28.7608 76.1629 29.2789 75.4671 29.2789C75.8011 29.2785 76.1216 29.4 76.3579 29.6168C76.5942 29.8335 76.7271 30.1277 76.7271 30.4344V30.4344Z" fill="#2C3A49"/>
<rect x="82.3252" y="63.4435" width="11.835" height="17.9532" transform="rotate(90 82.3252 63.4435)" fill="#C5D3E2"/>
<path d="M77.4496 53.0036C78.0708 57.2738 78.2546 60.7742 77.8591 60.8224C77.4636 60.8706 76.6341 57.4474 76.0198 53.1772C75.4056 48.907 75.2148 45.4067 75.6103 45.3569C76.0058 45.307 76.8301 48.7351 77.4496 53.0036Z" fill="white"/>
<g style="mix-blend-mode:multiply">
<path d="M64.3702 63.1897V82.543C64.3711 83.8009 65.4818 84.8203 66.8517 84.8203H73.3477V31.6994H72.8402C69.6184 31.2172 70.3534 32.7167 70.3534 33.9783V42.7244C67.932 49.4348 65.9342 56.2679 64.3702 63.1897Z" fill="#CCCCCC"/>
<path d="M70.2869 30.4328C70.286 30.7393 70.4177 31.0336 70.653 31.2509C70.8883 31.4682 71.2079 31.5907 71.5417 31.5916H73.3477V26.963H71.5417C71.2079 26.9639 70.8883 27.0864 70.653 27.3037C70.4177 27.521 70.286 27.8153 70.2869 28.1218C70.2879 28.7578 70.8491 29.2732 71.5417 29.2741C70.8475 29.2776 70.2869 29.7954 70.2869 30.4328Z" fill="#BFBFBF"/>
</g>
<path d="M88.7109 42.7243V33.9766C88.7109 32.7182 87.9759 31.2155 91.1941 31.6961H92.5294C95.7459 31.2139 95.0126 32.7166 95.0126 33.9766V42.7243C95.5849 43.4218 100.683 61.9312 100.683 63.1896V82.5445C100.683 83.1491 100.421 83.729 99.9552 84.1565C99.4894 84.5839 98.8578 84.8238 98.1994 84.8234H85.2091C84.5507 84.8238 83.9191 84.5839 83.4533 84.1565C82.9876 83.729 82.7259 83.1491 82.7259 82.5445V63.1896C84.2902 56.2677 86.2885 49.4346 88.7109 42.7243Z" fill="#AA0C48"/>
<path d="M95.0862 30.4344C95.0852 31.0731 94.5217 31.5907 93.8262 31.5916H89.9009C89.2057 31.5907 88.6427 31.0729 88.6427 30.4344C88.6427 29.7962 89.206 29.2789 89.9009 29.2789C89.2057 29.278 88.6427 28.7602 88.6427 28.1217C88.6427 27.4833 89.2057 26.9655 89.9009 26.9646H93.8227C94.5186 26.9646 95.0827 27.4827 95.0827 28.1217C95.0827 28.7608 94.5186 29.2789 93.8227 29.2789C94.1572 29.278 94.4783 29.3993 94.7153 29.6161C94.9523 29.8328 95.0857 30.1272 95.0862 30.4344Z" fill="#2C3A49"/>
<rect x="100.681" y="63.4435" width="11.835" height="17.955" transform="rotate(90 100.681 63.4435)" fill="#C5D3E2"/>
<path d="M95.8054 53.0036C96.4267 57.2738 96.6104 60.7742 96.2149 60.8224C95.8194 60.8706 94.9899 57.4474 94.3757 53.1772C93.7614 48.907 93.5724 45.4067 93.9662 45.3569C94.3599 45.307 95.1789 48.7351 95.8054 53.0036Z" fill="white"/>
<g style="mix-blend-mode:multiply">
<path d="M82.726 63.1897V82.543C82.7269 83.8009 83.8376 84.8203 85.2074 84.8203H91.7052V31.6994H91.196C87.9742 31.2172 88.7092 32.7167 88.7092 33.9783V42.7244C86.2874 49.4347 84.2896 56.2678 82.726 63.1897Z" fill="#CCCCCC"/>
<path d="M88.6427 30.4328C88.6418 30.7393 88.7734 31.0336 89.0088 31.2509C89.2441 31.4682 89.5637 31.5907 89.8975 31.5916H91.7052V26.963H89.8992C89.5655 26.9639 89.2458 27.0864 89.0105 27.3037C88.7752 27.521 88.6435 27.8153 88.6445 28.1218C88.6454 28.7578 89.2066 29.2732 89.8992 29.2741C89.2044 29.2767 88.6427 29.7948 88.6427 30.4328Z" fill="#BFBFBF"/>
</g>
<g style="mix-blend-mode:multiply">
<path d="M58.373 42.8081C58.0719 42.8074 57.7715 42.7822 57.4753 42.7326C58.1952 43.5105 58.5898 44.4985 58.5883 45.5194C58.5721 46.6977 58.0467 47.8217 57.1276 48.6441C56.2086 49.4664 54.9713 49.9195 53.6883 49.9036C53.6113 49.9036 53.5395 49.9036 53.4678 49.9036V41.1367C53.5413 41.1367 53.613 41.1367 53.6883 41.1367C53.9887 41.1373 54.2885 41.162 54.5843 41.2106C53.8637 40.4341 53.4679 39.4473 53.4678 38.427C53.5033 35.9735 55.6961 34.0101 58.3678 34.0395C61.0398 34.0092 63.2332 35.9731 63.2678 38.427C63.2303 40.8769 61.0407 42.8367 58.373 42.8081Z" fill="#CCCCCC"/>
<path d="M68.3882 34.0346C65.7164 34.0033 63.5227 35.9668 63.4882 38.4205C63.5043 39.599 64.0296 40.7235 64.9486 41.5463C65.8675 42.3691 67.1048 42.823 68.3882 42.808C69.6715 42.823 70.9088 42.3691 71.8277 41.5463C72.7467 40.7235 73.272 39.599 73.2882 38.4205C73.272 37.242 72.7466 36.1178 71.8276 35.2952C70.9086 34.4726 69.6713 34.0191 68.3882 34.0346Z" fill="#CCCCCC"/>
<path d="M68.3881 46.0208C68.3715 47.199 67.8459 48.3228 66.927 49.1451C66.008 49.9673 64.771 50.4206 63.4881 50.4051C62.7893 50.4069 62.0981 50.2727 61.4599 50.0114C62.5994 50.8319 63.2663 52.087 63.2694 53.4169C63.2348 55.8708 61.0414 57.8348 58.3694 57.8044C57.8828 57.8043 57.3988 57.7393 56.9326 57.6115C57.8494 58.4246 58.3678 59.5445 58.3694 60.7149C58.3348 63.1686 56.1411 65.1321 53.4694 65.1008V56.3258C53.9565 56.3254 54.4411 56.3904 54.9079 56.5187C53.9896 55.7064 53.4704 54.5862 53.4694 53.4153C53.486 52.2371 54.0116 51.1133 54.9305 50.2911C55.8495 49.4688 57.0865 49.0156 58.3694 49.031C59.0687 49.0296 59.7604 49.1638 60.3994 49.4248C59.2579 48.6052 58.5889 47.3499 58.5846 46.0192C58.6182 43.5647 60.8119 41.5997 63.4846 41.6301C64.3068 41.6292 65.1165 41.8147 65.8419 42.1701L66.0169 42.2665C67.4759 43.0436 68.3781 44.4719 68.3881 46.0208Z" fill="#CCCCCC"/>
</g>
<g style="mix-blend-mode:multiply">
<path d="M43.6729 37.8194C43.6384 35.3657 41.4447 33.4022 38.7729 33.4335C36.1015 33.4031 33.9085 35.3661 33.8729 37.8194C33.9075 40.273 36.1011 42.2365 38.7729 42.2053C40.0561 42.2207 41.2934 41.7672 42.2124 40.9446C43.1314 40.1221 43.6568 38.9978 43.6729 37.8194Z" fill="#AA0C48"/>
<path d="M48.5765 42.2068C51.2483 42.2381 53.4419 40.2746 53.4765 37.8209C53.441 35.3676 51.2479 33.4047 48.5765 33.435C45.9051 33.4047 43.712 35.3676 43.6765 37.8209C43.712 40.2742 45.9051 42.2372 48.5765 42.2068Z" fill="#AA0C48"/>
<path d="M54.5912 41.2056C54.295 41.1561 53.9946 41.1308 53.6935 41.1301C52.4101 41.1151 51.1728 41.5689 50.2539 42.3918C49.3349 43.2146 48.8096 44.339 48.7935 45.5176C48.8096 46.696 49.335 47.8203 50.254 48.6429C51.173 49.4655 52.4103 49.9189 53.6935 49.9035C54.9766 49.9189 56.2139 49.4655 57.1329 48.6429C58.0519 47.8203 58.5773 46.696 58.5935 45.5176C58.5933 44.4972 58.1982 43.51 57.4787 42.7324C57.7743 42.782 58.0742 42.8073 58.3747 42.808C59.6579 42.8234 60.8952 42.3699 61.8142 41.5473C62.7332 40.7248 63.2586 39.6005 63.2747 38.4221C63.259 37.2433 62.7338 36.1187 61.8148 35.2957C60.8957 34.4728 59.6582 34.0191 58.3747 34.0346C57.0914 34.0195 55.8541 34.4734 54.9351 35.2962C54.0162 36.1191 53.4908 37.2435 53.4747 38.4221C53.4752 39.4422 53.871 40.429 54.5912 41.2056Z" fill="#AA0C48"/>
<path d="M68.3882 34.033C67.1048 34.0179 65.8675 34.4718 64.9486 35.2946C64.0296 36.1175 63.5043 37.2419 63.4882 38.4205C63.5227 40.8741 65.7164 42.8376 68.3882 42.8063C71.0599 42.8376 73.2536 40.8741 73.2882 38.4205C73.272 37.2419 72.7467 36.1175 71.8277 35.2946C70.9088 34.4718 69.6715 34.0179 68.3882 34.033Z" fill="#AA0C48"/>
<path d="M48.5747 45.5176C48.5585 44.339 48.0332 43.2146 47.1142 42.3918C46.1953 41.5689 44.958 41.1151 43.6747 41.1301C41.0026 41.0997 38.8092 43.0637 38.7747 45.5176C38.8092 47.9713 41.0029 49.9348 43.6747 49.9035C44.9578 49.919 46.1951 49.4655 47.1141 48.6429C48.0331 47.8203 48.5585 46.6961 48.5747 45.5176Z" fill="#AA0C48"/>
<path d="M63.4899 41.6315C60.8181 41.6002 58.6244 43.5637 58.5899 46.0174C58.5933 47.3475 59.2609 48.6027 60.4011 49.4229C59.7626 49.1623 59.0715 49.0281 58.3729 49.0292C55.7011 48.9979 53.5074 50.9614 53.4729 53.415C53.4748 54.5857 53.9939 55.7056 54.9114 56.5184C54.4446 56.3902 53.96 56.3253 53.4729 56.3256C52.8367 56.3229 52.2059 56.432 51.6144 56.647C52.7825 55.8283 53.4694 54.5572 53.4729 53.2077C53.4383 50.7538 51.2449 48.7899 48.5729 48.8202C45.9008 48.7899 43.7074 50.7538 43.6729 53.2077C43.7074 55.6616 45.9008 57.6256 48.5729 57.5952C49.2102 57.5962 49.8418 57.4844 50.4331 57.2658C49.2638 58.0844 48.5762 59.3564 48.5729 60.7067C48.6084 63.1599 50.8015 65.1229 53.4729 65.0925C56.1442 65.1229 58.3373 63.1599 58.3729 60.7067C58.3715 59.5362 57.853 58.4163 56.9361 57.6033C57.4024 57.7307 57.8864 57.7951 58.3729 57.7945C59.6563 57.81 60.8939 57.3562 61.8129 56.5333C62.732 55.7104 63.2572 54.5857 63.2729 53.407C63.2694 52.0769 62.6018 50.8217 61.4616 50.0015C62.0998 50.2631 62.791 50.3979 63.4899 50.3968C64.7732 50.4118 66.0105 49.958 66.9294 49.1352C67.8484 48.3123 68.3737 47.1879 68.3899 46.0093C68.3505 43.5588 66.1583 41.6002 63.4899 41.6315Z" fill="#AA0C48"/>
</g>
<path d="M36.8182 35.6C36.1339 36.4276 36.6432 37.4305 36.0167 37.4048C35.2099 37.3726 35.4077 35.9214 36.0937 35.0937C36.5707 34.3151 37.6266 34.014 38.4999 34.4075C39.1422 34.8543 37.5042 34.7723 36.8182 35.6Z" fill="white"/>
<path d="M41.3612 43.6021C40.6752 44.4297 41.1862 45.4326 40.558 45.4069C39.753 45.3747 39.9507 43.9235 40.6367 43.0942C41.1137 42.3156 42.1696 42.0144 43.043 42.408C43.6817 42.8628 42.0455 42.7776 41.3612 43.6021Z" fill="white"/>
<path d="M46.7494 35.6C46.0634 36.4276 46.5744 37.4305 45.9461 37.4048C45.1394 37.3726 45.3389 35.9214 46.0249 35.0937C46.5018 34.3151 47.5578 34.014 48.4311 34.4075C49.0716 34.8543 47.4354 34.7723 46.7494 35.6Z" fill="white"/>
<path d="M46.1001 51.6103C45.4141 52.438 45.9251 53.4409 45.2969 53.4168C44.4901 53.3846 44.6896 51.9318 45.3739 51.1041C45.8508 50.3255 46.9068 50.0243 47.7801 50.4178C48.4224 50.8662 46.7861 50.7827 46.1001 51.6103Z" fill="white"/>
<path d="M51.2908 43.3689C50.6066 44.1966 51.1158 45.1994 50.4893 45.1737C49.6808 45.1432 49.8803 43.6903 50.5663 42.8626C51.0433 42.084 52.0993 41.7829 52.9726 42.1764C53.6131 42.6248 51.9751 42.5476 51.2908 43.3689Z" fill="white"/>
<path d="M56.2659 36.0146C55.5799 36.8423 56.0909 37.8452 55.4626 37.8194C54.6559 37.7873 54.8554 36.3361 55.5396 35.5068C56.0172 34.7288 57.073 34.4283 57.9459 34.8221C58.5881 35.2705 56.9519 35.1869 56.2659 36.0146Z" fill="white"/>
<path d="M51.2908 58.9229C50.6066 59.7505 51.1158 60.7518 50.4893 60.7277C49.6808 60.6955 49.8803 59.2443 50.5663 58.415C51.0433 57.6364 52.0993 57.3352 52.9726 57.7288C53.6131 58.1788 51.9751 58.0952 51.2908 58.9229Z" fill="white"/>
<path d="M56.2659 51.3051C55.5799 52.1327 56.0909 53.1356 55.4626 53.1099C54.6559 53.0777 54.8554 51.6265 55.5396 50.7972C56.0166 50.0186 57.0726 49.7174 57.9459 50.111C58.5881 50.5594 56.9519 50.4758 56.2659 51.3051Z" fill="white"/>
<path d="M61.4441 44.2062C60.7599 45.0339 61.2691 46.0367 60.6426 46.0126C59.8359 45.9805 60.0354 44.5292 60.7214 43.7C61.1988 42.9237 62.2527 42.6241 63.1241 43.0169C63.7594 43.4621 62.1301 43.3785 61.4441 44.2062Z" fill="white"/>
<path d="M66.0589 36.6141C65.3729 37.4418 65.8839 38.4447 65.2574 38.4206C64.4507 38.3884 64.6502 36.9372 65.3344 36.1079C65.8107 35.3295 66.8661 35.0283 67.7389 35.4216C68.3829 35.87 66.7467 35.7945 66.0589 36.6141Z" fill="white"/>
<path d="M57.5732 3.06006C58.8267 1.28586 60.9145 0.15516 63.2117 0.00649143C66.0454 0.000648563 68.7292 1.17506 70.5092 3.19988C72.7962 5.94623 73.4957 9.53871 72.387 12.8427C70.245 21.3124 58.954 22.9163 58.8437 22.9276C58.8437 22.9276 69.0077 20.8029 70.9607 13.0774C71.981 10.0942 71.3682 6.8422 69.3157 4.34738C67.7632 2.57438 65.4197 1.54261 62.9422 1.54131C61.0751 1.48839 59.3273 2.38172 58.3922 3.86685C57.508 5.46444 57.6057 7.3717 58.6495 8.88596C59.5884 9.8109 60.9623 10.2531 62.3245 10.0688C63.7666 9.84058 64.8865 8.78816 65.1017 7.45881C65.5018 6.5549 65.2744 5.51887 64.5242 4.82792C63.803 4.31754 62.8358 4.20967 62.0025 4.54667C61.586 4.77583 61.2952 5.1568 61.2027 5.59453C60.8398 6.79721 61.3576 8.07808 62.4872 8.77185C61.9084 8.74648 61.3617 8.52014 60.9577 8.13863C60.294 7.4352 59.9672 6.51568 60.0512 5.5881C60.0592 4.70794 60.6404 3.91776 61.5265 3.58238C62.7642 3.07159 64.2085 3.23577 65.2732 4.00828C66.3949 4.94501 66.7751 6.41817 66.2305 7.71756C65.9055 9.4634 64.4097 10.8274 62.5065 11.1135C60.6856 11.368 58.8527 10.7276 57.6765 9.42595C56.4233 7.58899 56.3176 5.28134 57.3982 3.35417C57.4437 3.25292 57.5067 3.15649 57.5732 3.06006Z" fill="#769C41"/>
<path d="M57.596 18.5158C57.246 18.1156 60.2542 17.6109 61.8502 15.4718C62.464 14.3024 62.9122 13.0655 63.1837 11.7915L61.5352 12.1306L59.6487 6.5747L54.271 3.32666L51.5025 6.59398C51.5025 6.59398 51.7545 13.5899 50.9775 13.2877C50.2005 12.9856 50.5155 7.47148 50.5155 7.47148L48.8827 5.06077L47.5825 6.23077L38.521 3.51309L37.296 12.1756L35.5775 12.7301L37.2102 15.1408C37.2102 15.1408 42.5547 17.0693 42.5057 17.8424C42.4567 18.6154 35.9152 15.5731 35.9152 15.5731L31.5017 16.4104L32.0022 20.9843L36.9022 26.2879L35.8435 27.4949C37.2166 27.7935 38.6178 27.9706 40.0277 28.0236C41.272 27.9417 44.5777 24.827 44.8157 25.2915C45.0537 25.7559 41.2807 31.1576 41.2807 31.1576C41.2807 31.1576 44.9995 32.7004 47.3777 31.8438C48.4726 31.5059 49.5136 31.0357 50.4735 30.4456L50.9985 31.1206C50.9985 31.1206 52.9532 28.8915 52.5017 27.6909C52.0502 26.4904 50.7307 26.2445 51.0387 25.2111C51.3636 24.5094 51.6309 23.7863 51.8385 23.0479C52.2602 23.2231 53.2665 23.1395 54.2412 23.3147L54.306 23.3276L54.3182 23.3388V23.3292C55.3857 23.5686 55.0725 24.7306 56.0262 25.6145C56.98 26.4984 60.039 25.8909 60.039 25.8909L59.612 25.1565C60.6123 24.6279 61.5315 23.9793 62.3455 23.2279C64.2337 21.6465 64.3685 17.9002 64.3685 17.9002C64.3685 17.9002 57.939 18.9176 57.596 18.5158Z" fill="#769C41"/>
<g style="mix-blend-mode:multiply">
<path d="M61.5336 12.1292L63.1821 11.7885C62.9103 13.0628 62.4628 14.3 61.8503 15.4704C60.2543 17.6079 57.2513 18.1126 57.5978 18.5111C57.9443 18.9097 64.3546 17.8843 64.3546 17.8843C64.3546 17.8843 64.2198 21.629 62.3298 23.212C61.5161 23.963 60.5975 24.6115 59.5981 25.1406L60.0233 25.8734C60.0233 25.8734 56.9836 26.5002 56.0106 25.5986C55.0376 24.697 55.3683 23.5511 54.3043 23.3117V23.3213L54.2938 23.3117L54.2308 23.2972C53.2526 23.1236 52.2463 23.2056 51.8246 23.0304C51.8259 23.0406 51.8259 23.0508 51.8246 23.0609L38.5911 3.53095L47.5686 6.22291L48.8688 5.05452L50.5016 7.46524C50.5016 7.46524 50.1813 12.9793 50.9636 13.2799C51.7458 13.5804 51.4886 6.58774 51.4886 6.58774L54.2588 3.32202L59.6348 6.56845L61.5336 12.1292Z" fill="#CCCCCC"/>
</g>
<path d="M53.4308 35.7349C53.3796 35.7081 53.3331 35.6746 53.2926 35.6353C53.0759 35.4208 53.0892 35.0857 53.3223 34.8863C53.3223 34.8863 54.2288 33.9349 54.1693 30.3703C53.9555 27.8492 52.8661 25.4577 51.0613 23.5479C50.846 23.3322 50.8617 22.997 51.0963 22.799C51.209 22.7036 51.3583 22.6534 51.5114 22.6594C51.6644 22.6655 51.8085 22.7273 51.9118 22.8311C53.9156 24.9271 55.1135 27.5699 55.3208 30.3526C55.3908 34.4428 54.2393 35.5485 54.1063 35.6561C53.924 35.815 53.6506 35.8468 53.4308 35.7349Z" fill="#769C41"/>
<path d="M54.2849 34.5617H54.2184C53.904 34.5289 53.6778 34.2687 53.7126 33.9799C54.2354 31.8029 55.9779 30.0448 58.2889 29.3626C61.5902 28.3398 65.0608 27.8552 68.5439 27.9306C68.8615 27.9385 69.1125 28.1805 69.1056 28.4722C69.0961 28.7637 68.8334 28.9942 68.5159 28.9897C65.1971 28.9262 61.8907 29.3822 58.7386 30.3381C56.8152 30.8789 55.3405 32.3051 54.8519 34.0972C54.8153 34.3601 54.5735 34.5582 54.2849 34.5617Z" fill="#769C41"/>
<path d="M71.3125 31.8119C71.6047 31.6657 71.6292 33.3419 72.842 34.4187C73.5314 34.8675 74.2807 35.2332 75.0715 35.5067L75.0172 34.581L78.7727 34.1117L81.3977 31.5226L79.576 29.6985C79.576 29.6985 75.0592 29.1376 75.3322 28.7439C75.6052 28.3501 79.1105 29.0653 79.1105 29.0653L80.8202 28.4225L80.199 27.6012L82.8467 22.9662L77.4077 21.4426L77.2222 20.4575L75.5125 21.1003C75.5125 21.1003 73.745 23.8035 73.2515 23.6991C72.758 23.5946 75.3637 20.3562 75.3637 20.3562L75.2657 17.8828L72.2785 17.698L68.3882 19.8194L67.718 19.1251C67.3899 19.8389 67.1374 20.58 66.9637 21.3382C66.892 22.0196 68.5615 24.1185 68.243 24.2037C67.0237 23.4701 65.8813 22.634 64.8305 21.7062C64.1134 22.6528 63.7454 23.7855 63.7805 24.9382C63.8891 25.565 64.088 26.1757 64.372 26.7542L63.8855 26.9744C63.8855 26.9744 65.1227 28.2601 65.9382 28.1284C66.7537 27.9966 67.039 27.3135 67.6742 27.5835C68.243 27.8246 68.7242 28.2151 68.985 28.2264C68.8292 28.4369 68.7837 28.9898 68.5755 29.5009C68.5755 29.5121 68.565 29.5234 68.5597 29.5346C68.299 30.0891 67.585 29.803 66.9217 30.2321C66.2585 30.6612 66.3442 32.3776 66.3442 32.3776L66.8587 32.2169C67.099 32.8116 67.4244 33.3742 67.8265 33.89C68.6828 34.7333 69.8106 35.3027 71.0447 35.5148C70.9952 34.2753 71.0849 33.0345 71.3125 31.8119Z" fill="#769C41"/>
<g style="mix-blend-mode:multiply">
<path d="M75.0208 34.5827L75.075 35.5084C74.2845 35.2343 73.5353 34.8686 72.8455 34.4204C71.631 33.3436 71.6065 31.6673 71.316 31.8152C71.0849 33.0433 70.9935 34.2902 71.043 35.5357C69.8088 35.3229 68.681 34.753 67.8248 33.9093C67.4236 33.3936 67.0982 32.8317 66.857 32.2379L66.3443 32.3986C66.3443 32.3986 66.2445 30.6902 66.92 30.2531C67.5955 29.8159 68.299 30.11 68.558 29.5572L68.5738 29.5234C68.782 29.0123 68.8293 28.4579 68.9833 28.2473C68.9769 28.2481 68.9704 28.2481 68.964 28.2473L82.8188 23.0273L80.1938 27.619L80.8133 28.4402L79.1053 29.0831C79.1053 29.0831 75.6053 28.3615 75.327 28.7616C75.0488 29.1618 79.569 29.7163 79.569 29.7163L81.3908 31.5404L78.7658 34.1279L75.0208 34.5827Z" fill="#CCCCCC"/>
</g>
</g>
</svg>
