<svg width="97" height="15" viewBox="0 0 97 15" fill="none" xmlns="http://www.w3.org/2000/svg">
<path fill-rule="evenodd" clip-rule="evenodd" d="M17 5.9307C17 5.53393 16.6643 5.21195 16.2498 5.21195C16.2231 5.21195 16.1968 5.2134 16.171 5.2157L10.99 5.09476L9.22011 0.521328C9.13088 0.220371 8.84257 0 8.50006 0C8.15719 0 7.86924 0.220371 7.77965 0.521328L6.00938 5.09476L0.828682 5.2157C0.802683 5.21316 0.776195 5.21195 0.749829 5.21195C0.335672 5.21159 0 5.53369 0 5.9307C0 6.18442 0.136832 6.40648 0.34324 6.53442L4.4698 9.42197L2.99736 13.9519C2.9439 14.0501 2.91339 14.1623 2.91339 14.2809C2.91339 14.678 3.24906 15 3.66358 15C3.83911 15 4.00121 14.9415 4.12888 14.8441L8.50043 12.0971L12.8717 14.8441C12.9998 14.9415 13.1611 15 13.337 15C13.7512 15 14.0869 14.678 14.0869 14.2809C14.0869 14.1626 14.0563 14.0506 14.0029 13.9519L12.5306 9.42197L16.657 6.53442C16.8629 6.40624 17 6.18405 17 5.9307ZM97 5.9307C97 5.53393 96.6643 5.21195 96.2498 5.21195C96.2231 5.21195 96.1968 5.2134 96.171 5.2157L90.99 5.09476L89.2201 0.521328C89.1309 0.220371 88.8426 0 88.5001 0C88.1572 0 87.8692 0.220371 87.7796 0.521328L86.0094 5.09476L80.8287 5.2157C80.8027 5.21316 80.7762 5.21195 80.7498 5.21195C80.3357 5.21159 80 5.53369 80 5.9307C80 6.18442 80.1368 6.40648 80.3432 6.53442L84.4698 9.42197L82.9974 13.9519C82.9439 14.0501 82.9134 14.1623 82.9134 14.2809C82.9134 14.678 83.2491 15 83.6636 15C83.8391 15 84.0012 14.9415 84.1289 14.8441L88.5004 12.0971L92.8717 14.8441C92.9998 14.9415 93.1611 15 93.337 15C93.7512 15 94.0869 14.678 94.0869 14.2809C94.0869 14.1626 94.0563 14.0506 94.0029 13.9519L92.5306 9.42197L96.657 6.53442C96.8629 6.40624 97 6.18405 97 5.9307ZM56.2498 5.21195C56.6643 5.21195 57 5.53393 57 5.9307C57 6.18405 56.8629 6.40624 56.657 6.53442L52.5306 9.42197L54.0029 13.9519C54.0563 14.0506 54.0869 14.1626 54.0869 14.2809C54.0869 14.678 53.7512 15 53.337 15C53.1611 15 52.9998 14.9415 52.8717 14.8441L48.5004 12.0971L44.1289 14.8441C44.0012 14.9415 43.8391 15 43.6636 15C43.2491 15 42.9134 14.678 42.9134 14.2809C42.9134 14.1623 42.9439 14.0501 42.9974 13.9519L44.4698 9.42197L40.3432 6.53442C40.1368 6.40648 40 6.18442 40 5.9307C40 5.53369 40.3357 5.21159 40.7498 5.21195C40.7762 5.21195 40.8027 5.21316 40.8287 5.2157L46.0094 5.09476L47.7796 0.521328C47.8692 0.220371 48.1572 0 48.5001 0C48.8426 0 49.1309 0.220371 49.2201 0.521328L50.99 5.09476L56.171 5.2157C56.1968 5.2134 56.2231 5.21195 56.2498 5.21195ZM37 5.9307C37 5.53393 36.6643 5.21195 36.2498 5.21195C36.2231 5.21195 36.1968 5.2134 36.171 5.2157L30.99 5.09476L29.2201 0.521328C29.1309 0.220371 28.8426 0 28.5001 0C28.1572 0 27.8692 0.220371 27.7796 0.521328L26.0094 5.09476L20.8287 5.2157C20.8027 5.21316 20.7762 5.21195 20.7498 5.21195C20.3357 5.21159 20 5.53369 20 5.9307C20 6.18442 20.1368 6.40648 20.3432 6.53442L24.4698 9.42197L22.9974 13.9519C22.9439 14.0501 22.9134 14.1623 22.9134 14.2809C22.9134 14.678 23.2491 15 23.6636 15C23.8391 15 24.0012 14.9415 24.1289 14.8441L28.5004 12.0971L32.8717 14.8441C32.9998 14.9415 33.1611 15 33.337 15C33.7512 15 34.0869 14.678 34.0869 14.2809C34.0869 14.1626 34.0563 14.0506 34.0029 13.9519L32.5306 9.42197L36.657 6.53442C36.8629 6.40624 37 6.18405 37 5.9307ZM76.2498 5.21195C76.6643 5.21195 77 5.53393 77 5.9307C77 6.18405 76.8629 6.40624 76.657 6.53442L72.5306 9.42197L74.0029 13.9519C74.0563 14.0506 74.0869 14.1626 74.0869 14.2809C74.0869 14.678 73.7512 15 73.337 15C73.1611 15 72.9998 14.9415 72.8717 14.8441L68.5004 12.0971L64.1289 14.8441C64.0012 14.9415 63.8391 15 63.6636 15C63.2491 15 62.9134 14.678 62.9134 14.2809C62.9134 14.1623 62.9439 14.0501 62.9974 13.9519L64.4698 9.42197L60.3432 6.53442C60.1368 6.40648 60 6.18442 60 5.9307C60 5.53369 60.3357 5.21159 60.7498 5.21195C60.7762 5.21195 60.8027 5.21316 60.8287 5.2157L66.0094 5.09476L67.7796 0.521328C67.8692 0.220371 68.1572 0 68.5001 0C68.8426 0 69.1309 0.220371 69.2201 0.521328L70.99 5.09476L76.171 5.2157C76.1968 5.2134 76.2231 5.21195 76.2498 5.21195Z" fill="#FFD25D"/>
</svg>
