<svg width="93" height="125" viewBox="0 0 93 125" fill="none" xmlns="http://www.w3.org/2000/svg">
<g clip-path="url(#clip0_154_114)">
<rect width="93" height="90.2264" rx="14" fill="#B1EAFD"/>
<mask id="mask0_154_114" style="mask-type:luminance" maskUnits="userSpaceOnUse" x="0" y="0" width="93" height="91">
<rect width="93" height="90.2264" rx="14" fill="white"/>
</mask>
<g mask="url(#mask0_154_114)">
<path d="M36.3771 16.1118C35.8577 16.1118 35.353 15.9086 35.0753 15.5453C34.662 15.0044 34.9089 14.3137 35.6271 14.0022C39.0191 12.5319 43.7353 12.5173 47.363 13.9661C48.095 14.2584 48.3739 14.9424 47.9856 15.4938C47.5973 16.0452 46.6893 16.2549 45.9571 15.9626C43.2486 14.881 39.6165 14.8803 37.1241 15.9608C36.8884 16.0631 36.6311 16.1118 36.3771 16.1118Z" fill="#60D195"/>
<ellipse cx="47.3304" cy="15.3062" rx="5.8125" ry="5.63915" fill="#E85668"/>
<path d="M56.7404 25.7789H38.1965C38.1965 21.6777 41.5521 18.1986 46.0751 17.6104L47.9102 17.3717C50.3767 17.051 52.4995 15.6412 53.5623 13.6181C54.0423 12.7043 55.4612 12.6347 56.0495 13.496C58.2697 16.7464 58.7357 20.7227 57.3173 24.3164L56.7404 25.7789Z" fill="#F7D9A4"/>
<g opacity="0.05">
<path d="M55.9141 13.5964C55.3601 12.7857 54.059 12.8168 53.5357 13.6101C55.3506 16.6715 55.6616 20.2874 54.3624 23.5775L53.7952 25.0139H38.3978C38.3789 25.2279 38.3674 25.4435 38.3674 25.6615H56.593L57.1602 24.225C58.5543 20.695 58.0963 16.7892 55.9141 13.5964Z" fill="black"/>
</g>
<path d="M64.7679 33.8349H33.2143L33.6885 31.4173C34.5153 27.2022 37.6382 23.9593 41.5678 23.2354C46.4812 22.3304 51.501 22.3304 56.4145 23.2354C60.344 23.9591 63.4669 27.202 64.2937 31.4173L64.7679 33.8349Z" fill="#F7D9A4"/>
<g opacity="0.05">
<path d="M64.2842 30.0638C63.4579 26.3935 60.3369 23.5698 56.4098 22.9395C55.5826 22.8066 54.7523 22.6983 53.9201 22.6102C56.7968 23.7605 58.9615 26.1719 59.6287 29.1361L60.1025 31.2412H33.4329L33.2242 32.1687H64.7582L64.2842 30.0638Z" fill="black"/>
</g>
<path d="M68.0894 40.2796H28.2322V37.0408C28.2322 32.6637 31.3809 28.9494 35.627 28.3176C43.9389 27.081 52.3828 27.081 60.6946 28.3176C64.9408 28.9494 68.0894 32.6635 68.0894 37.0408V40.2796Z" fill="#F7D9A4"/>
<g opacity="0.05">
<path d="M60.6678 29.2993C60.3159 29.2515 59.9635 29.2089 59.6112 29.1652C61.8628 30.622 63.3088 33.04 63.3088 35.7362V38.6779H28.275V40.1638H68.0467V37.2221C68.0467 33.2465 64.9048 29.8731 60.6678 29.2993Z" fill="black"/>
</g>
<path d="M29.1129 33.8349C27.7093 33.8349 26.5715 34.9448 26.5715 36.3138V38.7989C26.5715 51.3959 29.153 63.8657 34.1641 75.4756C35.5489 78.684 37.9048 81.4035 40.9168 83.2707C42.1294 84.0223 42.8636 85.3264 42.8636 86.7277V96.6712H53.4579V86.7277C53.4579 85.3264 54.1924 84.0223 55.4047 83.2707C58.4167 81.4035 60.7726 78.684 62.1575 75.4756C67.1688 63.8657 69.7501 51.3958 69.7501 38.7989V36.3138C69.7501 34.9448 68.6122 33.8349 67.2087 33.8349L29.1129 33.8349Z" fill="#9BD8EB"/>
<path d="M29.1129 33.8349C27.7093 33.8349 26.5715 34.9448 26.5715 36.3138V38.7989C26.5715 51.3959 29.153 63.8657 34.1641 75.4756C35.5489 78.684 37.9048 81.4035 40.9168 83.2707C42.1294 84.0223 42.8636 85.3264 42.8636 86.7277V96.6712H53.4579V86.7277C53.4579 85.3264 54.1924 84.0223 55.4047 83.2707C58.4167 81.4035 60.7726 78.684 62.1575 75.4756C67.1688 63.8657 69.7501 51.3958 69.7501 38.7989V36.3138C69.7501 34.9448 68.6122 33.8349 67.2087 33.8349L29.1129 33.8349Z" fill="#9BD8EB"/>
<g opacity="0.05">
<path d="M48.1608 46.8513C45.4325 46.8513 43.2208 49.0477 43.2208 51.7572V65.8921C43.2208 68.6016 45.4325 70.798 48.1608 70.798C50.8891 70.798 53.1007 68.6016 53.1007 65.8921V51.7572C53.1007 49.0479 50.8891 46.8513 48.1608 46.8513Z" fill="black"/>
</g>
<g opacity="0.05">
<path d="M66.7988 46.8457C63.9152 46.8457 61.5777 48.9453 61.5777 51.5353V65.0471C61.5777 66.8829 62.7527 68.4711 64.4635 69.2411C67.1271 62.2213 68.8399 54.941 69.5629 47.5571C68.7611 47.1069 67.8141 46.8457 66.7988 46.8457Z" fill="black"/>
</g>
<g opacity="0.05">
<path d="M29.5226 46.8457C28.5074 46.8457 27.5604 47.1069 26.7586 47.5573C27.4816 54.9412 29.1943 62.2217 31.858 69.2413C33.5687 68.4713 34.7438 66.8829 34.7438 65.0472V51.5355C34.744 48.9455 32.4064 46.8457 29.5226 46.8457Z" fill="black"/>
</g>
<g opacity="0.3">
<path d="M67.0459 35.5331H29.2754C27.8839 35.5331 26.7557 36.5996 26.7557 37.915V40.3028C26.7557 40.7747 26.7611 41.2464 26.7688 41.7179H69.5531C69.5609 41.2464 69.5662 40.7747 69.5662 40.3028V37.915C69.566 36.5996 68.4379 35.5331 67.0459 35.5331Z" fill="white"/>
</g>
<g opacity="0.1">
<path d="M67.0781 33.9253H61.4495C62.8245 33.9253 63.9393 35.0327 63.9393 36.3987V38.8784C63.9393 51.4477 61.4104 63.89 56.5012 75.4743C55.1446 78.6757 52.8366 81.3891 49.8859 83.2523C48.698 84.0022 47.9787 85.3034 47.9787 86.7016V92.6623H43.2286V96.6232H53.6072V86.7016C53.6072 85.3034 54.3267 84.0022 55.5143 83.2523C58.4651 81.3891 60.773 78.6757 62.1297 75.4743C67.0388 63.89 69.5678 51.4475 69.5678 38.8784V36.3987C69.5682 35.0327 68.4535 33.9253 67.0781 33.9253Z" fill="black"/>
</g>
<path d="M39.7307 32.2237C39.3381 32.2237 38.9454 32.0784 38.6459 31.7877C38.0468 31.2064 38.0468 30.2639 38.6459 29.6828L40.5598 27.8261C41.1589 27.2448 42.1304 27.2448 42.7293 27.8261C43.3285 28.4074 43.3285 29.3498 42.7293 29.9309L40.8155 31.7877C40.516 32.0784 40.1232 32.2237 39.7307 32.2237Z" fill="#FDA354"/>
<path d="M46.2813 25.7789C46.1982 25.7789 46.1143 25.7724 46.0296 25.7591C45.2464 25.6351 44.7234 24.9643 44.8615 24.261L45.3025 22.0142C45.4406 21.3107 46.1869 20.8415 46.9706 20.9651C47.7538 21.0891 48.2768 21.7599 48.1387 22.4632L47.6977 24.71C47.5746 25.3373 46.9669 25.7789 46.2813 25.7789Z" fill="white"/>
<path d="M54.9302 32.2237C54.5377 32.2237 54.1449 32.0784 53.8454 31.7877L51.9316 29.9309C51.3324 29.3496 51.3324 28.4072 51.9316 27.8261C52.5307 27.2448 53.5022 27.2448 54.1011 27.8261L56.015 29.6828C56.6142 30.2641 56.6142 31.2066 56.015 31.7877C55.7155 32.0784 55.3228 32.2237 54.9302 32.2237Z" fill="#F98F9D"/>
</g>
</g>
<defs>
<clipPath id="clip0_154_114">
<rect width="92.9673" height="124.018" fill="white" transform="scale(1.00035)"/>
</clipPath>
</defs>
</svg>
